<?xml version="1.0" encoding="utf-8"?>
<!-- Generator: Adobe Illustrator 27.4.0, SVG Export Plug-In . SVG Version: 6.00 Build 0)  -->
<svg version="1.1" xmlns="http://www.w3.org/2000/svg" xmlns:xlink="http://www.w3.org/1999/xlink" x="0px" y="0px"
	 viewBox="0 0 60 60" style="enable-background:new 0 0 60 60;" xml:space="preserve">
<style type="text/css">
	.st0{display:none;}
	.st1{display:inline;fill:#DCEDF9;}
	.st2{display:inline;opacity:0.5;}
	.st3{fill:none;stroke:#B3B3B3;stroke-width:5.000000e-02;stroke-miterlimit:10;}
	.st4{fill:#040000;}
</style>
<g id="Grid" class="st0">
	<rect x="3" y="3" class="st1" width="54" height="54"/>
	<g class="st2">
		<line class="st3" x1="0" y1="0" x2="60" y2="60"/>
		<line class="st3" x1="0" y1="60" x2="60" y2="0"/>
		<line class="st3" x1="0" y1="30" x2="60" y2="30"/>
		<line class="st3" x1="30" y1="0" x2="30" y2="60"/>
		<circle class="st3" cx="30" cy="30" r="30"/>
		<circle class="st3" cx="30" cy="30" r="15"/>
	</g>
</g>
<g id="Endless_free_content_x5F_online">
	<g id="Endless_free_content_x5F_online_00000041987870030245780410000008785902108363676348_">
		<path class="st4" d="M55.9,24c-0.2-0.1-0.4-0.2-0.6-0.1l-2.2,0.5v-1.7c0-0.2-0.1-0.4-0.3-0.6S52.4,22,52.2,22l-2.8,0.7v-1.8
			c0-0.2-0.1-0.4-0.3-0.6c-0.2-0.1-0.4-0.2-0.6-0.1l-2.8,0.7V19c0-0.2-0.1-0.4-0.3-0.5c-0.2-0.1-0.4-0.2-0.6-0.1L39,19.7v-3.1
			c0-0.2-0.1-0.4-0.3-0.6c-0.2-0.1-0.4-0.2-0.6-0.1L31,17.6v-2.2c0-0.2-0.1-0.4-0.3-0.5c-0.2-0.1-0.4-0.2-0.6-0.1L4.3,20.8
			c-0.3,0.1-0.5,0.4-0.5,0.7v17.1c0,0.3,0.2,0.6,0.5,0.7l25.8,6.1c0.1,0,0.1,0,0.2,0c0.2,0,0.3,0,0.4-0.2c0.2-0.1,0.3-0.3,0.3-0.5
			v-2.2l7.1,1.7c0.1,0,0.1,0,0.2,0c0.2,0,0.3,0,0.4-0.1c0.2-0.1,0.3-0.3,0.3-0.6v-3.1l5.9,1.4c0,0,0.1,0,0.2,0c0.2,0,0.3,0,0.4-0.2
			c0.2-0.1,0.3-0.3,0.3-0.5v-1.8l2.8,0.7c0.1,0,0.1,0,0.2,0c0.2,0,0.3,0,0.4-0.1c0.2-0.1,0.3-0.3,0.3-0.6v-1.8l2.8,0.7
			c0.1,0,0.1,0,0.2,0c0.2,0,0.3,0,0.4-0.1c0.2-0.1,0.3-0.3,0.3-0.6v-1.7l2.2,0.5c0,0,0.1,0,0.2,0c0.2,0,0.3,0,0.4-0.2
			c0.2-0.1,0.3-0.3,0.3-0.5v-11C56.2,24.3,56.1,24.1,55.9,24L55.9,24z M29.6,43.8L5.2,38V22l24.4-5.8V43.8z M37.6,42.6L31,41V19
			l6.6-1.6V42.6z M44.3,40.1L39,38.9V21.2l5.3-1.2V40.1L44.3,40.1z M48,38.3l-2.3-0.5V22.3l2.3-0.5V38.3L48,38.3z M51.7,36.4
			l-2.3-0.6V24.2l2.3-0.6V36.4L51.7,36.4z M54.8,34.6l-1.7-0.4v-8.4l1.7-0.4V34.6L54.8,34.6z"/>
		<path class="st4" d="M20.4,29.1L15.7,26c-0.4-0.2-0.8-0.3-1.1-0.1c-0.3,0.2-0.5,0.5-0.5,1v6.2c0,0.4,0.2,0.8,0.5,1
			c0.1,0.1,0.3,0.1,0.5,0.1c0.2,0,0.4-0.1,0.6-0.2l4.8-3.1c0.4-0.2,0.6-0.6,0.6-1S20.8,29.3,20.4,29.1L20.4,29.1z M15.4,32.5v-5
			l3.9,2.5L15.4,32.5z"/>
	</g>
</g>
</svg>
