<svg xmlns="http://www.w3.org/2000/svg" width="156" height="156" fill="none"><path fill="url(#a)" d="M78 156c43.078 0 78-34.922 78-78S121.078 0 78 0 0 34.922 0 78s34.922 78 78 78" opacity=".28"/><path fill="url(#b)" d="m78.174 45.066-34.135 19.86 34.055 19.22 34.454-19.62z"/><path fill="url(#c)" d="m113.188 63.727-34.374 19.22.558 39.08 34.214-18.822z"/><path fill="url(#d)" d="m43.96 63.727 34.454 19.22-.558 39.08-34.295-18.822z"/><path fill="url(#e)" d="m92.929 37.328-13 7.178 33.975 19.22 12.362-7.655z"/><path fill="url(#f)" d="m44.04 66.117-13 7.178 34.055 19.221 12.282-7.657z"/><path fill="url(#g)" d="m76.022 45.144-14.117-9.171-32.62 19.699L44.2 64.445z"/><path fill="url(#h)" d="m127.142 73.697-14.116-9.252-32.62 19.7 14.914 8.773z"/><path fill="#fff" stroke="#fff" stroke-miterlimit="10" stroke-width=".798" d="M78.492 125.136c-.319 0-.558-.08-.877-.239l-34.294-19.62c-.559-.319-.878-.877-.878-1.435V81.909c0-.957.718-1.675 1.675-1.675s1.675.798 1.675 1.675v20.976l32.62 18.662 22.411-12.76c.797-.479 1.834-.16 2.313.638.478.797.159 1.834-.638 2.312l-23.13 13.16c-.239.159-.558.239-.877.239Z"/><path fill="#fff" stroke="#fff" stroke-miterlimit="10" stroke-width=".798" d="M78.812 125.136c.32 0 .558-.08.877-.239l34.295-19.62c.558-.319.877-.877.877-1.435V81.909c0-.957-.718-1.675-1.675-1.675s-1.674.798-1.674 1.675v20.976l-32.62 18.662-22.411-12.76c-.798-.479-1.834-.16-2.313.638-.479.797-.16 1.834.638 2.312l23.209 13.24c.239.079.558.159.797.159Z"/><path fill="#fff" stroke="#fff" stroke-miterlimit="10" stroke-width=".798" d="M78.49 124.978c-.957 0-1.675-.798-1.675-1.675v-39.16c0-.957.718-1.674 1.675-1.674s1.675.797 1.675 1.675v39.159c.08.957-.718 1.675-1.675 1.675Z"/><path fill="#fff" stroke="#fff" stroke-miterlimit="10" stroke-width=".798" d="M63.578 94.353c-.319 0-.558-.08-.877-.24l-34.294-19.54c-.559-.318-.878-.876-.878-1.435 0-.638.32-1.196.878-1.435L43.4 63.169q.837-.48 1.674 0l34.295 19.46c.797.479 1.116 1.515.638 2.313-.16.319-.399.558-.718.638l-14.914 8.534c-.24.16-.558.239-.798.239ZM32.713 73.138l30.865 17.626 11.565-6.62-30.865-17.546zM112.785 66.279c-.319 0-.558-.08-.877-.24l-8.693-4.944L77.614 46.5c-.559-.32-.878-.878-.878-1.436 0-.638.32-1.196.878-1.435l15.073-8.534q.838-.48 1.675 0l34.295 19.46c.558.319.877.877.877 1.435 0 .639-.319 1.197-.877 1.436l-14.994 8.614c-.24.159-.559.239-.878.239Zm-7.816-8.135 7.816 4.466 11.565-6.62-30.865-17.546-11.565 6.54z"/><path fill="#fff" stroke="#fff" stroke-miterlimit="10" stroke-width=".798" d="M44.278 66.36c-.32 0-.559-.08-.877-.24l-14.994-8.534c-.559-.319-.878-.877-.878-1.435 0-.638.32-1.197.878-1.436L62.7 35.255q.838-.48 1.675 0l14.994 8.374c.558.32.877.877.877 1.436 0 .638-.319 1.196-.877 1.435L45.075 66.04c-.239.24-.478.32-.797.32ZM32.713 56.07l11.565 6.62 30.865-17.625-11.565-6.54zM93.563 94.355c-.319 0-.558-.08-.877-.239l-14.994-8.534c-.558-.319-.877-.877-.877-1.435 0-.638.319-1.197.877-1.436l34.295-19.46q.837-.479 1.675 0l14.993 8.534c.559.319.878.877.878 1.435 0 .638-.319 1.197-.878 1.436l-34.294 19.54c-.24.16-.479.16-.798.16ZM82 84.147l11.564 6.62 30.865-17.626-11.564-6.54z"/><circle cx="115.854" cy="113.557" r="20.647" fill="#fff"/><g clip-path="url(#i)"><path fill="#F7AB20" d="M116.016 93.273c-11.297 0-20.486 9.19-20.486 20.486s9.189 20.486 20.486 20.486c11.296 0 20.485-9.189 20.485-20.486 0-11.296-9.189-20.486-20.485-20.486m1.336 28.051c0 .786-.634 1.429-1.41 1.429h-.107c-.775 0-1.41-.639-1.41-1.429v-.068c0-.785.635-1.429 1.41-1.429h.107c.776 0 1.41.639 1.41 1.429zm2.497-8.218c-.663.741-1.458 1.375-2.029 2.195-.297.429-.317.36-.502.863-.151.41-.059.975-.273 1.375-.347.644-1.064.834-1.746.547-.8-.342-.922-1.147-.869-1.922.059-.883.195-1.259.634-2.044.42-.746 1.039-1.346 1.63-1.951.995-1.019 2.497-2.8.873-4.034-1.43-1.087-3.371-.283-3.756 1.395-.176.766-.429 1.429-1.195 1.683-.571.19-1.18.054-1.537-.434-.936-1.283.269-3.58 1.22-4.526 2.434-2.425 7.297-1.829 8.614 1.497l-.015-.034c-.034-.078-.049-.127-.054-.142.005.02.03.078.054.142.005.015.01.019.015.034l.063.166c-.01-.025-.034-.093-.063-.161.77 1.927.287 3.843-1.064 5.351"/></g><rect width="41.294" height="41.294" x="95.207" y="92.91" stroke="#DFE6FD" stroke-width="4.588" rx="20.647"/><path fill="url(#j)" d="M76.084 24.881a2.632 2.632 0 1 0 0-5.264 2.632 2.632 0 0 0 0 5.264"/><path fill="#F7AB20" d="M28.632 107.104a2.552 2.552 0 1 0 0-5.103 2.552 2.552 0 0 0 0 5.103"/><path fill="url(#k)" d="M138.614 68.985a1.834 1.834 0 1 0 0-3.668 1.834 1.834 0 0 0 0 3.668"/><defs><linearGradient id="a" x1="134.672" x2="27.651" y1="185.521" y2="-17.637" gradientUnits="userSpaceOnUse"><stop stop-color="#A6BBFB"/><stop offset=".133" stop-color="#9DB3F7"/><stop offset=".347" stop-color="#869DEE"/><stop offset=".613" stop-color="#607ADD"/><stop offset=".919" stop-color="#2C49C7"/><stop offset="1" stop-color="#1D3BC1"/></linearGradient><linearGradient id="b" x1="44.056" x2="149.961" y1="64.603" y2="64.603" gradientUnits="userSpaceOnUse"><stop offset=".006" stop-color="#A6BBFB"/><stop offset=".118" stop-color="#8BA2F0"/><stop offset=".306" stop-color="#647DDF"/><stop offset=".491" stop-color="#4560D2"/><stop offset=".671" stop-color="#2F4CC9"/><stop offset=".844" stop-color="#223FC3"/><stop offset="1" stop-color="#1D3BC1"/></linearGradient><linearGradient id="c" x1="96.147" x2="96.5" y1="80.802" y2="137.899" gradientUnits="userSpaceOnUse"><stop stop-color="#A6BBFB"/><stop offset=".15" stop-color="#A1B6F9"/><stop offset=".326" stop-color="#93A9F3"/><stop offset=".515" stop-color="#7B93E9"/><stop offset=".714" stop-color="#5A74DB"/><stop offset=".918" stop-color="#304DC9"/><stop offset="1" stop-color="#1D3BC1"/></linearGradient><linearGradient id="d" x1="60.905" x2="61.238" y1="81.02" y2="134.839" gradientUnits="userSpaceOnUse"><stop offset=".006" stop-color="#A6BBFB"/><stop offset=".155" stop-color="#A1B6F9"/><stop offset=".33" stop-color="#93A9F3"/><stop offset=".518" stop-color="#7B93E9"/><stop offset=".716" stop-color="#5A74DB"/><stop offset=".919" stop-color="#304DC9"/><stop offset="1" stop-color="#1D3BC1"/></linearGradient><linearGradient id="e" x1="123.763" x2="84.244" y1="35.361" y2="63.846" gradientUnits="userSpaceOnUse"><stop offset=".006" stop-color="#A6BBFB"/><stop offset=".154" stop-color="#A1B6F9"/><stop offset=".33" stop-color="#93A9F3"/><stop offset=".519" stop-color="#7B92E9"/><stop offset=".719" stop-color="#5973DA"/><stop offset=".925" stop-color="#2E4BC8"/><stop offset="1" stop-color="#1D3BC1"/></linearGradient><linearGradient id="f" x1="26.637" x2="76.915" y1="103.241" y2="59.148" gradientUnits="userSpaceOnUse"><stop offset=".006" stop-color="#A6BBFB"/><stop offset=".155" stop-color="#A1B6F9"/><stop offset=".33" stop-color="#93A9F3"/><stop offset=".518" stop-color="#7B93E9"/><stop offset=".716" stop-color="#5A74DB"/><stop offset=".919" stop-color="#304DC9"/><stop offset="1" stop-color="#1D3BC1"/></linearGradient><linearGradient id="g" x1="41.952" x2="72.035" y1="41.215" y2="67.081" gradientUnits="userSpaceOnUse"><stop stop-color="#A6BBFB"/><stop offset=".15" stop-color="#A1B6F9"/><stop offset=".326" stop-color="#93A9F3"/><stop offset=".515" stop-color="#7B93E9"/><stop offset=".714" stop-color="#5A74DB"/><stop offset=".918" stop-color="#304DC9"/><stop offset="1" stop-color="#1D3BC1"/></linearGradient><linearGradient id="h" x1="118.104" x2="85.93" y1="91.691" y2="62.964" gradientUnits="userSpaceOnUse"><stop offset=".006" stop-color="#A6BBFB"/><stop offset=".155" stop-color="#A1B6F9"/><stop offset=".33" stop-color="#93A9F3"/><stop offset=".518" stop-color="#7B93E9"/><stop offset=".716" stop-color="#5A74DB"/><stop offset=".919" stop-color="#304DC9"/><stop offset="1" stop-color="#1D3BC1"/></linearGradient><linearGradient id="j" x1="68.823" x2="94.1" y1="15.933" y2="38.133" gradientUnits="userSpaceOnUse"><stop offset=".006" stop-color="#A6BBFB"/><stop offset=".153" stop-color="#99AFF6"/><stop offset=".425" stop-color="#778FE7"/><stop offset=".788" stop-color="#405CD0"/><stop offset="1" stop-color="#1D3BC1"/></linearGradient><linearGradient id="k" x1="134.177" x2="150.222" y1="62.875" y2="78.48" gradientUnits="userSpaceOnUse"><stop offset=".006" stop-color="#A6BBFB"/><stop offset=".155" stop-color="#A1B6F9"/><stop offset=".33" stop-color="#93A9F3"/><stop offset=".518" stop-color="#7B93E9"/><stop offset=".716" stop-color="#5A74DB"/><stop offset=".919" stop-color="#304DC9"/><stop offset="1" stop-color="#1D3BC1"/></linearGradient><clipPath id="i"><rect width="41.294" height="41.294" x="95.207" y="92.91" fill="#fff" rx="20.647"/></clipPath></defs></svg>