<?xml version="1.0" encoding="utf-8"?>
<!-- Generator: Adobe Illustrator 28.2.0, SVG Export Plug-In . SVG Version: 6.00 Build 0)  -->
<svg version="1.1" id="Layer_1" xmlns="http://www.w3.org/2000/svg" xmlns:xlink="http://www.w3.org/1999/xlink" x="0px" y="0px"
	 viewBox="0 0 64 64" style="enable-background:new 0 0 64 64;" xml:space="preserve">
<style type="text/css">
	.st0{fill:none;}
</style>
<path d="M51.74,20.79l1.73,0.54v-6.81l-8.61-2.68v5l-5.14-1.6v-5L32,7.83l-7.73,2.41v5l-5.13,1.6v-5l-8.61,2.68v5.64
	c0,3.28,0.39,6.51,1.17,9.6l0.22,0.89L32,24.44l18.43,5.71l-0.26,0.87c-0.48,1.6-1.08,3.18-1.77,4.69l-0.33,0.73l-16.06-4.97
	l-17.74,5.49l0.46,0.91c1.32,2.61,2.95,5.14,4.86,7.52l0.37,0.46l12.05-3.73l10.28,3.18l-0.97,1.06c-3.56,3.91-7.06,6.39-8.83,7.53
	L32,54.21l-0.49-0.32c-0.81-0.52-2.06-1.37-3.51-2.54l-1.98,0.61c3.01,2.54,5.29,3.84,5.57,3.99L32,56.18l0.42-0.23
	c0.26-0.14,6.36-3.54,12-10.57l0.8-0.99L32,40.3l-11.44,3.54l-0.39-0.51c-1.05-1.39-2.02-2.85-2.88-4.34L16.72,38L32,33.27
	l16.95,5.24l0.33-0.65c1.31-2.6,2.33-5.32,3.02-8.1l0.2-0.79L32,22.63l-18.85,5.83l-0.2-1c-0.46-2.37-0.7-4.83-0.7-7.3v-4.37
	l5.16-1.61v5L26,16.5v-5l6-1.87l6,1.87v5l8.59,2.68v-5l5.16,1.61L51.74,20.79L51.74,20.79z"/>
<rect class="st0" width="64" height="64"/>
</svg>
