<svg xmlns="http://www.w3.org/2000/svg" width="180" height="180" fill="none"><path fill="#fff" d="M0 12C0 5.373 5.373 0 12 0h156c6.627 0 12 5.373 12 12v156c0 6.627-5.373 12-12 12H12c-6.627 0-12-5.373-12-12z"/><path fill="url(#a)" d="M90 167.625c42.871 0 77.625-34.754 77.625-77.625S132.871 12.375 90 12.375 12.375 47.129 12.375 90 47.129 167.625 90 167.625" opacity=".28"/><path fill="url(#b)" stroke="#fff" stroke-miterlimit="10" stroke-width="4.233" d="M88.492 130.241c23.539 0 42.622-19.083 42.622-42.623s-19.083-42.622-42.622-42.622S45.869 64.08 45.869 87.618s19.083 42.623 42.623 42.623Z"/><path fill="url(#c)" stroke="#fff" stroke-miterlimit="10" stroke-width="4.233" d="M88.493 73.013c5.873-5.873 12.62-5.714 17.938-2.778 4.286 2.382 6.746 6.032 7.222 10.954.635 6.587-1.19 12.54-6.191 16.985-5.476 4.921-11.429 9.366-17.144 14.049q-1.785 1.428-3.571 0c-6.112-5.001-12.62-9.763-18.256-15.24-4.683-4.603-6.19-10.794-4.841-17.382 2.222-10.715 15.636-14.922 23.81-7.54.318.238.636.555 1.033.952Z"/><path fill="url(#d)" stroke="#D9E2FB" stroke-miterlimit="10" stroke-width="4.233" d="M123.178 142.942c10.389 0 18.811-8.422 18.811-18.811s-8.422-18.811-18.811-18.811-18.811 8.422-18.811 18.811 8.422 18.811 18.811 18.811Z"/><path stroke="#fff" stroke-linecap="round" stroke-miterlimit="10" stroke-width="3.269" d="M123.178 130.477v-12.461M116.906 124.207h12.541"/><path fill="url(#e)" d="M148.656 88.41a2.62 2.62 0 1 0 0-5.239 2.62 2.62 0 0 0 0 5.24"/><path fill="url(#f)" d="M71.744 31.742a1.984 1.984 0 1 0 0-3.969 1.984 1.984 0 0 0 0 3.969"/><path fill="url(#g)" d="M46.663 129.764a1.825 1.825 0 1 0 .001-3.65 1.825 1.825 0 0 0 0 3.65"/><defs><linearGradient id="a" x1="171.774" x2="16.876" y1="35.99" y2="138.281" gradientUnits="userSpaceOnUse"><stop stop-color="#A6BBFB"/><stop offset=".133" stop-color="#9DB3F7"/><stop offset=".347" stop-color="#869DEE"/><stop offset=".613" stop-color="#607ADD"/><stop offset=".919" stop-color="#2C49C7"/><stop offset="1" stop-color="#1D3BC1"/></linearGradient><linearGradient id="b" x1="45.895" x2="131.074" y1="87.611" y2="87.611" gradientUnits="userSpaceOnUse"><stop offset=".006" stop-color="#A6BBFB"/><stop offset=".155" stop-color="#A1B6F9"/><stop offset=".33" stop-color="#93A9F3"/><stop offset=".518" stop-color="#7B93E9"/><stop offset=".716" stop-color="#5A74DB"/><stop offset=".919" stop-color="#304DC9"/><stop offset="1" stop-color="#1D3BC1"/></linearGradient><linearGradient id="c" x1="63.177" x2="113.795" y1="90.556" y2="90.556" gradientUnits="userSpaceOnUse"><stop stop-color="#F0B55B"/><stop offset="1" stop-color="#E3B74A"/></linearGradient><linearGradient id="d" x1="104.366" x2="142.043" y1="124.154" y2="124.154" gradientUnits="userSpaceOnUse"><stop stop-color="#F0B55B"/><stop offset="1" stop-color="#E3B74A"/></linearGradient><linearGradient id="e" x1="143.968" x2="160.063" y1="82.099" y2="94.683" gradientUnits="userSpaceOnUse"><stop offset=".006" stop-color="#A6BBFB"/><stop offset=".155" stop-color="#A1B6F9"/><stop offset=".33" stop-color="#93A9F3"/><stop offset=".518" stop-color="#7B93E9"/><stop offset=".716" stop-color="#5A74DB"/><stop offset=".919" stop-color="#304DC9"/><stop offset="1" stop-color="#1D3BC1"/></linearGradient><linearGradient id="f" x1="69.745" x2="73.737" y1="29.736" y2="29.736" gradientUnits="userSpaceOnUse"><stop stop-color="#F0B55B"/><stop offset="1" stop-color="#E9CD4C"/></linearGradient><linearGradient id="g" x1="42.654" x2="56.116" y1="124.618" y2="135.739" gradientUnits="userSpaceOnUse"><stop offset=".006" stop-color="#A6BBFB"/><stop offset=".155" stop-color="#A1B6F9"/><stop offset=".33" stop-color="#93A9F3"/><stop offset=".518" stop-color="#7B93E9"/><stop offset=".716" stop-color="#5A74DB"/><stop offset=".919" stop-color="#304DC9"/><stop offset="1" stop-color="#1D3BC1"/></linearGradient></defs></svg>